<svg width="241" height="73" viewBox="0 0 241 73" fill="none" xmlns="http://www.w3.org/2000/svg">
<path d="M49.5518 54V24.9091H55.7024V36.9119H68.1882V24.9091H74.3246V54H68.1882V41.983H55.7024V54H49.5518ZM106.129 39.4545C106.129 42.6269 105.527 45.3258 104.325 47.5511C103.131 49.7765 101.503 51.4763 99.4382 52.6506C97.3833 53.8153 95.0727 54.3977 92.5064 54.3977C89.9212 54.3977 87.6011 53.8106 85.5462 52.6364C83.4912 51.4621 81.8672 49.7623 80.674 47.5369C79.4808 45.3116 78.8842 42.6174 78.8842 39.4545C78.8842 36.2822 79.4808 33.5833 80.674 31.358C81.8672 29.1326 83.4912 27.4375 85.5462 26.2727C87.6011 25.0985 89.9212 24.5114 92.5064 24.5114C95.0727 24.5114 97.3833 25.0985 99.4382 26.2727C101.503 27.4375 103.131 29.1326 104.325 31.358C105.527 33.5833 106.129 36.2822 106.129 39.4545ZM99.8928 39.4545C99.8928 37.3996 99.585 35.6667 98.9695 34.2557C98.3634 32.8447 97.5064 31.7746 96.3984 31.0455C95.2905 30.3163 93.9931 29.9517 92.5064 29.9517C91.0196 29.9517 89.7223 30.3163 88.6143 31.0455C87.5064 31.7746 86.6446 32.8447 86.0291 34.2557C85.4231 35.6667 85.12 37.3996 85.12 39.4545C85.12 41.5095 85.4231 43.2424 86.0291 44.6534C86.6446 46.0644 87.5064 47.1345 88.6143 47.8636C89.7223 48.5928 91.0196 48.9574 92.5064 48.9574C93.9931 48.9574 95.2905 48.5928 96.3984 47.8636C97.5064 47.1345 98.3634 46.0644 98.9695 44.6534C99.585 43.2424 99.8928 41.5095 99.8928 39.4545ZM107.222 24.9091H114.112L120.745 37.4375H121.029L127.663 24.9091H134.552L123.941 43.7159V54H117.833V43.7159L107.222 24.9091ZM155.88 24.9091H162.031V43.8011C162.031 45.9223 161.524 47.7784 160.511 49.3693C159.507 50.9602 158.101 52.2008 156.292 53.0909C154.483 53.9716 152.376 54.4119 149.971 54.4119C147.556 54.4119 145.444 53.9716 143.636 53.0909C141.827 52.2008 140.421 50.9602 139.417 49.3693C138.413 47.7784 137.911 45.9223 137.911 43.8011V24.9091H144.062V43.2756C144.062 44.3835 144.303 45.3684 144.786 46.2301C145.279 47.0919 145.97 47.7689 146.86 48.2614C147.75 48.7538 148.787 49 149.971 49C151.164 49 152.201 48.7538 153.082 48.2614C153.972 47.7689 154.658 47.0919 155.141 46.2301C155.634 45.3684 155.88 44.3835 155.88 43.2756V24.9091ZM191.423 24.9091V54H186.111L173.455 35.6903H173.241V54H167.091V24.9091H172.489L185.045 43.2045H185.301V24.9091H191.423Z" fill="#003999"/>
<mask id="path-2-outside-1_47_52" maskUnits="userSpaceOnUse" x="29" y="12" width="20" height="57" fill="black">
<rect fill="white" x="29" y="12" width="20" height="57"/>
<path d="M30.574 67.4815V13.554H47.3851V20.3295H39.3525V60.6847H47.3851V67.4815H30.574Z"/>
</mask>
<path d="M30.574 67.4815V13.554H47.3851V20.3295H39.3525V60.6847H47.3851V67.4815H30.574Z" fill="#003999"/>
<path d="M30.574 67.4815H29.574V68.4815H30.574V67.4815ZM30.574 13.554V12.554H29.574V13.554H30.574ZM47.3851 13.554H48.3851V12.554H47.3851V13.554ZM47.3851 20.3295V21.3295H48.3851V20.3295H47.3851ZM39.3525 20.3295V19.3295H38.3525V20.3295H39.3525ZM39.3525 60.6847H38.3525V61.6847H39.3525V60.6847ZM47.3851 60.6847H48.3851V59.6847H47.3851V60.6847ZM47.3851 67.4815V68.4815H48.3851V67.4815H47.3851ZM30.574 67.4815H31.574V13.554H30.574H29.574V67.4815H30.574ZM30.574 13.554V14.554H47.3851V13.554V12.554H30.574V13.554ZM47.3851 13.554H46.3851V20.3295H47.3851H48.3851V13.554H47.3851ZM47.3851 20.3295V19.3295H39.3525V20.3295V21.3295H47.3851V20.3295ZM39.3525 20.3295H38.3525V60.6847H39.3525H40.3525V20.3295H39.3525ZM39.3525 60.6847V61.6847H47.3851V60.6847V59.6847H39.3525V60.6847ZM47.3851 60.6847H46.3851V67.4815H47.3851H48.3851V60.6847H47.3851ZM47.3851 67.4815V66.4815H30.574V67.4815V68.4815H47.3851V67.4815Z" fill="white" mask="url(#path-2-outside-1_47_52)"/>
<mask id="path-4-outside-2_47_52" maskUnits="userSpaceOnUse" x="192" y="12" width="20" height="57" fill="black">
<rect fill="white" x="192" y="12" width="20" height="57"/>
<path d="M210.421 13.554V67.4815H193.61V60.6847H201.642V20.3295H193.61V13.554H210.421Z"/>
</mask>
<path d="M210.421 13.554H211.421V12.554H210.421V13.554ZM210.421 67.4815V68.4815H211.421V67.4815H210.421ZM193.61 67.4815H192.61V68.4815H193.61V67.4815ZM193.61 60.6847V59.6847H192.61V60.6847H193.61ZM201.642 60.6847V61.6847H202.642V60.6847H201.642ZM201.642 20.3295H202.642V19.3295H201.642V20.3295ZM193.61 20.3295H192.61V21.3295H193.61V20.3295ZM193.61 13.554V12.554H192.61V13.554H193.61ZM210.421 13.554H209.421V67.4815H210.421H211.421V13.554H210.421ZM210.421 67.4815V66.4815H193.61V67.4815V68.4815H210.421V67.4815ZM193.61 67.4815H194.61V60.6847H193.61H192.61V67.4815H193.61ZM193.61 60.6847V61.6847H201.642V60.6847V59.6847H193.61V60.6847ZM201.642 60.6847H202.642V20.3295H201.642H200.642V60.6847H201.642ZM201.642 20.3295V19.3295H193.61V20.3295V21.3295H201.642V20.3295ZM193.61 20.3295H194.61V13.554H193.61H192.61V20.3295H193.61ZM193.61 13.554V14.554H210.421V13.554V12.554H193.61V13.554Z" fill="#003999" mask="url(#path-4-outside-2_47_52)"/>
</svg>
